<svg xmlns="http://www.w3.org/2000/svg" viewBox="73.8 20 312.3 78" width="937" height="234">
<defs><linearGradient id="hf" x1="0" y1="0" x2="1" y2="0">
<stop offset="0" stop-color="#8a6b1f" stop-opacity="0"/><stop offset="0.18" stop-color="#8a6b1f" stop-opacity="0.75"/><stop offset="0.82" stop-color="#8a6b1f" stop-opacity="0.75"/><stop offset="1" stop-color="#8a6b1f" stop-opacity="0"/>
</linearGradient></defs><path d="M66 0V700H311L432 90H450L571 700H816V0H688V603H670L550 0H332L212 603H194V0Z" fill="#8a6b1f" transform="translate(108.62,58.00) scale(0.04000,-0.04000)"/>
<path d="M66 0V700H198V0Z" fill="#8a6b1f" transform="translate(143.50,58.00) scale(0.04000,-0.04000)"/>
<path d="M332 -14Q202 -14 126.0 58.5Q50 131 50 266V434Q50 569 126.0 641.5Q202 714 332 714Q461 714 531.5 643.5Q602 573 602 450V444H472V454Q472 516 437.5 556.0Q403 596 332 596Q262 596 222.0 553.0Q182 510 182 436V264Q182 191 222.0 147.5Q262 104 332 104Q403 104 437.5 144.5Q472 185 472 246V264H602V250Q602 127 531.5 56.5Q461 -14 332 -14Z" fill="#8a6b1f" transform="translate(153.66,58.00) scale(0.04000,-0.04000)"/>
<path d="M66 0V700H370Q436 700 485.0 677.0Q534 654 561.0 612.0Q588 570 588 513V501Q588 438 558.0 399.0Q528 360 484 342V324Q524 322 546.0 296.5Q568 271 568 229V0H436V210Q436 234 423.5 249.0Q411 264 382 264H198V0ZM198 384H356Q403 384 429.5 409.5Q456 435 456 477V487Q456 529 430.0 554.5Q404 580 356 580H198Z" fill="#8a6b1f" transform="translate(179.02,58.00) scale(0.04000,-0.04000)"/>
<path d="M338 -14Q206 -14 128.0 58.5Q50 131 50 266V434Q50 569 128.0 641.5Q206 714 338 714Q470 714 548.0 641.5Q626 569 626 434V266Q626 131 548.0 58.5Q470 -14 338 -14ZM338 104Q412 104 453.0 147.0Q494 190 494 262V438Q494 510 453.0 553.0Q412 596 338 596Q265 596 223.5 553.0Q182 510 182 438V262Q182 190 223.5 147.0Q265 104 338 104Z" fill="#8a6b1f" transform="translate(203.90,58.00) scale(0.04000,-0.04000)"/><path d="M324 -14Q246 -14 186.5 18.5Q127 51 93.5 114.0Q60 177 60 270V430Q60 569 134.0 641.5Q208 714 333 714Q457 714 522.0 646.0Q587 578 587 464V459H504V466Q504 516 486.0 555.0Q468 594 430.0 616.5Q392 639 333 639Q244 639 194.0 584.5Q144 530 144 432V268Q144 170 194.0 115.5Q244 61 334 61Q422 61 463.5 111.0Q505 161 505 244V261H293V333H587V0H511V76H497Q486 54 466.0 33.0Q446 12 412.0 -1.0Q378 -14 324 -14Z" fill="#c8c2b5" transform="translate(234.94,58.00) scale(0.04000,-0.04000)"/>
<path d="M83 0V489H160V429H174Q187 461 214.0 476.0Q241 491 285 491H343V419H280Q227 419 194.5 389.5Q162 360 162 298V0Z" fill="#c8c2b5" transform="translate(261.34,58.00) scale(0.04000,-0.04000)"/>
<path d="M309 -14Q235 -14 178.5 17.0Q122 48 90.5 104.5Q59 161 59 238V251Q59 327 90.5 384.0Q122 441 178.5 472.0Q235 503 309 503Q383 503 439.5 472.0Q496 441 527.5 384.0Q559 327 559 251V238Q559 161 527.5 104.5Q496 48 439.5 17.0Q383 -14 309 -14ZM309 57Q387 57 433.5 106.5Q480 156 480 240V249Q480 333 433.5 382.5Q387 432 309 432Q232 432 185.0 382.5Q138 333 138 249V240Q138 156 185.0 106.5Q232 57 309 57Z" fill="#c8c2b5" transform="translate(276.42,58.00) scale(0.04000,-0.04000)"/>
<path d="M270 -9Q217 -9 172.5 14.0Q128 37 102.5 82.5Q77 128 77 193V489H156V199Q156 126 192.5 93.0Q229 60 291 60Q361 60 406.0 106.0Q451 152 451 243V489H530V0H453V83H439Q423 48 384.0 19.5Q345 -9 270 -9Z" fill="#c8c2b5" transform="translate(301.14,58.00) scale(0.04000,-0.04000)"/>
<path d="M83 -200V489H160V408H174Q193 445 235.5 474.0Q278 503 354 503Q417 503 469.5 472.5Q522 442 553.5 386.0Q585 330 585 251V238Q585 160 554.0 103.0Q523 46 470.5 16.0Q418 -14 354 -14Q303 -14 267.5 -0.5Q232 13 210.0 34.0Q188 55 176 77H162V-200ZM333 56Q409 56 456.5 104.5Q504 153 504 240V249Q504 336 456.5 384.5Q409 433 333 433Q258 433 209.5 384.5Q161 336 161 249V240Q161 153 209.5 104.5Q258 56 333 56Z" fill="#c8c2b5" transform="translate(325.62,58.00) scale(0.04000,-0.04000)"/><rect x="81.84" y="60.00" width="296.32" height="1.6" fill="url(#hf)"/><path d="M200 287 209 305H468L475 287ZM694 12Q698 12 698.0 6.0Q698 0 694 0Q666 0 636.5 2.0Q607 4 580 4Q549 4 526.5 2.0Q504 0 477 0Q473 0 473.0 6.0Q473 12 477 12Q533 12 547.5 27.0Q562 42 543 84L317 570L336 587L143 123Q118 62 139.0 37.0Q160 12 228 12Q233 12 233.0 6.0Q233 0 228 0Q198 0 173.0 2.0Q148 4 110 4Q75 4 53.5 2.0Q32 0 2 0Q-2 0 -2.0 6.0Q-2 12 2 12Q29 12 49.0 22.0Q69 32 86.5 58.0Q104 84 124 132L333 635Q335 638 339.5 638.0Q344 638 345 635L577 137Q600 87 618.0 59.5Q636 32 654.0 22.0Q672 12 694 12Z" fill="#c8c2b5" transform="translate(87.84,80.00) scale(0.02100,-0.02100)"/>
<path d="M560 0Q558 0 558.0 6.0Q558 12 560 12Q601 12 613.5 25.0Q626 38 626 81V244Q626 363 537 363Q500 363 462.5 337.5Q425 312 396 269L392 281Q438 343 479.5 369.5Q521 396 564 396Q616 396 644.5 366.5Q673 337 673 275V81Q673 38 684.5 25.0Q696 12 738 12Q741 12 741.0 6.0Q741 0 738 0Q721 0 698.0 1.0Q675 2 649 2Q624 2 601.0 1.0Q578 0 560 0ZM303 0Q300 0 300.0 6.0Q300 12 303 12Q344 12 356.0 25.0Q368 38 368 81V244Q368 363 280 363Q243 363 205.5 337.5Q168 312 139 269L135 281Q180 343 221.5 369.5Q263 396 306 396Q358 396 386.5 366.5Q415 337 415 275V81Q415 38 427.0 25.0Q439 12 481 12Q483 12 483.0 6.0Q483 0 481 0Q463 0 440.5 1.0Q418 2 392 2Q367 2 343.5 1.0Q320 0 303 0ZM46 0Q43 0 43.0 6.0Q43 12 46 12Q87 12 99.0 25.0Q111 38 111 81V281Q111 315 103.0 330.5Q95 346 75 346Q65 346 51.0 342.0Q37 338 19 331Q15 330 12.5 335.0Q10 340 14 342L125 394Q127 395 130 395Q137 395 147.5 374.5Q158 354 158 315V81Q158 38 169.5 25.0Q181 12 223 12Q226 12 226.0 6.0Q226 0 223 0Q206 0 183.0 1.0Q160 2 135 2Q110 2 86.5 1.0Q63 0 46 0Z" fill="#c8c2b5" transform="translate(107.41,80.00) scale(0.02100,-0.02100)"/>
<path d="M215 -12Q156 -12 116.5 15.5Q77 43 57.0 87.0Q37 131 37 180Q37 241 65.0 289.5Q93 338 140.5 366.5Q188 395 244 395Q301 395 329.0 364.0Q357 333 357 281Q357 268 354.5 262.0Q352 256 345 256H298Q303 318 278.5 346.5Q254 375 212 375Q156 375 125.0 332.5Q94 290 94 216Q94 160 112.0 115.5Q130 71 165.0 45.5Q200 20 250 20Q285 20 307.5 30.5Q330 41 351 54Q353 56 356.5 51.5Q360 47 358 44Q323 14 287.5 1.0Q252 -12 215 -12ZM81 255 80 267 308 271V256Z" fill="#c8c2b5" transform="translate(123.37,80.00) scale(0.02100,-0.02100)"/>
<path d="M313 -6Q309 -8 305 -8Q293 -8 283.0 13.0Q273 34 273 74V267Q273 329 253.5 353.0Q234 377 205 377Q180 377 163.5 365.5Q147 354 138.5 337.0Q130 320 126 305Q124 295 119.0 281.5Q114 268 94 268Q79 268 71.5 277.0Q64 286 64 296Q64 313 82.0 330.5Q100 348 127.5 363.0Q155 378 185.0 387.0Q215 396 240 396Q281 396 300.0 369.5Q319 343 319 297V108Q319 72 327.5 55.5Q336 39 357 39Q376 39 412 54Q417 56 419.0 50.5Q421 45 416 43ZM136 -7Q99 -7 79.5 13.5Q60 34 60 61Q60 78 68.5 94.0Q77 110 98.5 125.0Q120 140 158 154L283 201L285 188L167 143Q146 135 135.0 125.5Q124 116 120.0 105.5Q116 95 116 84Q116 62 130.5 44.0Q145 26 173 26Q184 26 196.0 29.5Q208 33 225 43L292 82L294 70L219 23Q194 7 175.0 0.0Q156 -7 136 -7Z" fill="#c8c2b5" transform="translate(131.88,80.00) scale(0.02100,-0.02100)"/>
<path d="M96 322Q96 295 109.5 276.5Q123 258 144.5 245.5Q166 233 189 221Q215 209 238.0 194.5Q261 180 276.0 160.0Q291 140 291 108Q291 76 275.0 49.0Q259 22 227.5 5.5Q196 -11 151 -11Q127 -11 104.0 -4.5Q81 2 57 20Q55 22 53.0 25.0Q51 28 51 32L49 104Q49 107 54.5 107.5Q60 108 61 105Q74 71 91.5 49.5Q109 28 131.0 18.0Q153 8 180 8Q215 8 233.5 24.5Q252 41 250 74Q249 103 235.0 121.0Q221 139 200.0 151.0Q179 163 156 174Q131 186 108.5 199.5Q86 213 71.5 234.0Q57 255 57 288Q57 326 77.0 350.5Q97 375 127.5 387.0Q158 399 191 399Q209 399 227.0 395.5Q245 392 262 384Q271 380 271 373Q271 358 270.0 341.0Q269 324 269 304Q269 302 263.0 302.0Q257 302 257 304Q257 327 240.5 344.0Q224 361 200.5 370.0Q177 379 154 379Q127 379 111.5 365.0Q96 351 96 322Z" fill="#c8c2b5" transform="translate(140.68,80.00) scale(0.02100,-0.02100)"/>
<path d="M180 -7Q132 -7 104.0 23.5Q76 54 76 115V270Q76 311 70.0 328.5Q64 346 47 346Q32 346 11 336Q7 334 4.5 340.0Q2 346 6 347L111 394Q113 395 115 395Q117 395 120.0 393.0Q123 391 123 388V145Q123 84 144.0 55.5Q165 27 207 27Q248 27 289.0 51.5Q330 76 361 119L366 108Q317 46 272.0 19.5Q227 -7 180 -7ZM389 388V105Q389 71 397.5 55.5Q406 40 426 40Q437 40 450.0 44.0Q463 48 482 55Q487 57 489.0 51.5Q491 46 487 44L375 -8Q373 -9 371 -9Q364 -9 353.5 11.5Q343 32 343 71V270Q343 311 336.5 328.5Q330 346 313 346Q298 346 277 336Q273 334 271.0 340.0Q269 346 273 347L378 394Q380 395 381 395Q383 395 386.0 393.0Q389 391 389 388Z" fill="#c8c2b5" transform="translate(147.77,80.00) scale(0.02100,-0.02100)"/>
<path d="M139 271 135 281Q172 327 195.5 351.5Q219 376 236.0 385.5Q253 395 269 395Q290 395 310.0 384.0Q330 373 330 357Q330 347 322.5 339.0Q315 331 301 331Q289 331 280.5 338.0Q272 345 262.0 351.5Q252 358 235 358Q226 358 215.5 352.5Q205 347 187.5 328.5Q170 310 139 271ZM46 0Q43 0 43.0 6.0Q43 12 46 12Q87 12 99.0 25.0Q111 38 111 81V281Q111 315 103.0 330.5Q95 346 75 346Q65 346 51.0 342.0Q37 338 19 331Q15 330 12.5 335.0Q10 340 14 342L125 394Q127 395 130 395Q137 395 147.5 374.5Q158 354 158 315V81Q158 52 165.0 37.0Q172 22 193.5 17.0Q215 12 258 12Q261 12 261.0 6.0Q261 0 258 0Q234 0 202.0 1.0Q170 2 135 2Q110 2 86.5 1.0Q63 0 46 0Z" fill="#c8c2b5" transform="translate(158.06,80.00) scale(0.02100,-0.02100)"/>
<path d="M215 -12Q156 -12 116.5 15.5Q77 43 57.0 87.0Q37 131 37 180Q37 241 65.0 289.5Q93 338 140.5 366.5Q188 395 244 395Q301 395 329.0 364.0Q357 333 357 281Q357 268 354.5 262.0Q352 256 345 256H298Q303 318 278.5 346.5Q254 375 212 375Q156 375 125.0 332.5Q94 290 94 216Q94 160 112.0 115.5Q130 71 165.0 45.5Q200 20 250 20Q285 20 307.5 30.5Q330 41 351 54Q353 56 356.5 51.5Q360 47 358 44Q323 14 287.5 1.0Q252 -12 215 -12ZM81 255 80 267 308 271V256Z" fill="#c8c2b5" transform="translate(165.62,80.00) scale(0.02100,-0.02100)"/>
<path d="M193 -13Q152 -13 116.0 11.0Q80 35 58.5 77.5Q37 120 37 177Q37 233 58.5 274.5Q80 316 114.0 343.5Q148 371 188.0 385.0Q228 399 265 399Q300 399 330.5 386.5Q361 374 387 351L378 287Q353 325 320.5 352.5Q288 380 235 380Q171 380 131.5 334.5Q92 289 92 206Q92 150 110.0 108.0Q128 66 159.0 43.0Q190 20 228 20Q274 20 310.0 46.0Q346 72 378 108L386 101Q365 77 337.0 50.5Q309 24 273.5 5.5Q238 -13 193 -13ZM412 718V108Q412 72 420.5 55.5Q429 39 450 39Q460 39 474.5 41.5Q489 44 505 54Q510 56 512.5 50.5Q515 45 510 43L407 -6Q403 -8 399 -8Q386 -8 375.5 14.5Q365 37 365 81V599Q365 635 358.0 651.5Q351 668 331 668Q322 668 311.0 664.0Q300 660 283 653Q279 651 276.5 657.0Q274 663 278 664L400 724Q402 725 405 725Q407 725 409.5 723.0Q412 721 412 718Z" fill="#c8c2b5" transform="translate(174.13,80.00) scale(0.02100,-0.02100)"/>
<path d="M313 -6Q309 -8 305 -8Q293 -8 283.0 13.0Q273 34 273 74V267Q273 329 253.5 353.0Q234 377 205 377Q180 377 163.5 365.5Q147 354 138.5 337.0Q130 320 126 305Q124 295 119.0 281.5Q114 268 94 268Q79 268 71.5 277.0Q64 286 64 296Q64 313 82.0 330.5Q100 348 127.5 363.0Q155 378 185.0 387.0Q215 396 240 396Q281 396 300.0 369.5Q319 343 319 297V108Q319 72 327.5 55.5Q336 39 357 39Q376 39 412 54Q417 56 419.0 50.5Q421 45 416 43ZM136 -7Q99 -7 79.5 13.5Q60 34 60 61Q60 78 68.5 94.0Q77 110 98.5 125.0Q120 140 158 154L283 201L285 188L167 143Q146 135 135.0 125.5Q124 116 120.0 105.5Q116 95 116 84Q116 62 130.5 44.0Q145 26 173 26Q184 26 196.0 29.5Q208 33 225 43L292 82L294 70L219 23Q194 7 175.0 0.0Q156 -7 136 -7Z" fill="#c8c2b5" transform="translate(189.82,80.00) scale(0.02100,-0.02100)"/>
<path d="M33 -275Q30 -275 30.0 -269.0Q30 -263 33 -263Q74 -263 86.0 -250.0Q98 -237 98 -194V278Q98 314 90.0 330.5Q82 347 61 347Q51 347 37.0 343.5Q23 340 6 332Q2 331 -0.5 336.0Q-3 341 1 343L104 392Q108 394 112 394Q126 394 135.5 371.5Q145 349 145 305V-194Q145 -222 152.5 -237.0Q160 -252 182.5 -257.5Q205 -263 248 -263Q250 -263 250.0 -269.0Q250 -275 248 -275Q222 -275 190.0 -274.0Q158 -273 123 -273Q98 -273 74.0 -274.0Q50 -275 33 -275ZM256 -13Q218 -13 188.5 -3.0Q159 7 124 35L133 88Q162 53 197.0 30.0Q232 7 289 7Q342 7 378.5 54.0Q415 101 415 184Q415 273 376.5 319.5Q338 366 282 366Q236 366 201.0 340.0Q166 314 133 278L125 285Q176 344 223.0 371.5Q270 399 318 399Q359 399 393.5 377.5Q428 356 449.0 315.0Q470 274 470 215Q470 155 449.0 112.0Q428 69 394.5 41.5Q361 14 324.5 0.5Q288 -13 256 -13Z" fill="#c8c2b5" transform="translate(198.62,80.00) scale(0.02100,-0.02100)"/>
<path d="M33 -275Q30 -275 30.0 -269.0Q30 -263 33 -263Q74 -263 86.0 -250.0Q98 -237 98 -194V278Q98 314 90.0 330.5Q82 347 61 347Q51 347 37.0 343.5Q23 340 6 332Q2 331 -0.5 336.0Q-3 341 1 343L104 392Q108 394 112 394Q126 394 135.5 371.5Q145 349 145 305V-194Q145 -222 152.5 -237.0Q160 -252 182.5 -257.5Q205 -263 248 -263Q250 -263 250.0 -269.0Q250 -275 248 -275Q222 -275 190.0 -274.0Q158 -273 123 -273Q98 -273 74.0 -274.0Q50 -275 33 -275ZM256 -13Q218 -13 188.5 -3.0Q159 7 124 35L133 88Q162 53 197.0 30.0Q232 7 289 7Q342 7 378.5 54.0Q415 101 415 184Q415 273 376.5 319.5Q338 366 282 366Q236 366 201.0 340.0Q166 314 133 278L125 285Q176 344 223.0 371.5Q270 399 318 399Q359 399 393.5 377.5Q428 356 449.0 315.0Q470 274 470 215Q470 155 449.0 112.0Q428 69 394.5 41.5Q361 14 324.5 0.5Q288 -13 256 -13Z" fill="#c8c2b5" transform="translate(209.33,80.00) scale(0.02100,-0.02100)"/>
<path d="M139 271 135 281Q172 327 195.5 351.5Q219 376 236.0 385.5Q253 395 269 395Q290 395 310.0 384.0Q330 373 330 357Q330 347 322.5 339.0Q315 331 301 331Q289 331 280.5 338.0Q272 345 262.0 351.5Q252 358 235 358Q226 358 215.5 352.5Q205 347 187.5 328.5Q170 310 139 271ZM46 0Q43 0 43.0 6.0Q43 12 46 12Q87 12 99.0 25.0Q111 38 111 81V281Q111 315 103.0 330.5Q95 346 75 346Q65 346 51.0 342.0Q37 338 19 331Q15 330 12.5 335.0Q10 340 14 342L125 394Q127 395 130 395Q137 395 147.5 374.5Q158 354 158 315V81Q158 52 165.0 37.0Q172 22 193.5 17.0Q215 12 258 12Q261 12 261.0 6.0Q261 0 258 0Q234 0 202.0 1.0Q170 2 135 2Q110 2 86.5 1.0Q63 0 46 0Z" fill="#c8c2b5" transform="translate(220.04,80.00) scale(0.02100,-0.02100)"/>
<path d="M230 -13Q171 -13 127.5 16.0Q84 45 60.5 93.5Q37 142 37 198Q37 250 56.0 288.0Q75 326 106.5 350.5Q138 375 175.0 387.0Q212 399 248 399Q308 399 351.0 369.0Q394 339 417.0 292.0Q440 245 440 193Q440 129 411.0 83.0Q382 37 334.5 12.0Q287 -13 230 -13ZM258 5Q314 5 348.0 42.5Q382 80 382 167Q382 228 361.0 276.0Q340 324 302.5 352.0Q265 380 215 380Q158 380 126.0 340.5Q94 301 94 227Q94 168 114.5 117.0Q135 66 172.0 35.5Q209 5 258 5Z" fill="#c8c2b5" transform="translate(227.60,80.00) scale(0.02100,-0.02100)"/>
<path d="M313 -6Q309 -8 305 -8Q293 -8 283.0 13.0Q273 34 273 74V267Q273 329 253.5 353.0Q234 377 205 377Q180 377 163.5 365.5Q147 354 138.5 337.0Q130 320 126 305Q124 295 119.0 281.5Q114 268 94 268Q79 268 71.5 277.0Q64 286 64 296Q64 313 82.0 330.5Q100 348 127.5 363.0Q155 378 185.0 387.0Q215 396 240 396Q281 396 300.0 369.5Q319 343 319 297V108Q319 72 327.5 55.5Q336 39 357 39Q376 39 412 54Q417 56 419.0 50.5Q421 45 416 43ZM136 -7Q99 -7 79.5 13.5Q60 34 60 61Q60 78 68.5 94.0Q77 110 98.5 125.0Q120 140 158 154L283 201L285 188L167 143Q146 135 135.0 125.5Q124 116 120.0 105.5Q116 95 116 84Q116 62 130.5 44.0Q145 26 173 26Q184 26 196.0 29.5Q208 33 225 43L292 82L294 70L219 23Q194 7 175.0 0.0Q156 -7 136 -7Z" fill="#c8c2b5" transform="translate(237.61,80.00) scale(0.02100,-0.02100)"/>
<path d="M230 -12Q162 -12 119.5 17.5Q77 47 57.0 92.5Q37 138 37 185Q37 235 56.0 274.0Q75 313 106.5 340.0Q138 367 176.0 381.0Q214 395 251 395Q279 395 305.0 387.5Q331 380 348.0 367.0Q365 354 365 338Q365 326 357.5 317.5Q350 309 336 309Q322 309 312.0 318.0Q302 327 296 337Q284 354 267.5 364.5Q251 375 219 375Q158 375 126.0 330.5Q94 286 94 214Q94 163 112.0 118.5Q130 74 167.5 46.5Q205 19 265 19Q291 19 318.5 26.5Q346 34 368 54Q371 56 374.5 52.0Q378 48 375 46Q341 15 306.0 1.5Q271 -12 230 -12Z" fill="#c8c2b5" transform="translate(246.41,80.00) scale(0.02100,-0.02100)"/>
<path d="M27 0Q24 0 24.0 6.0Q24 12 27 12Q68 12 80.0 25.0Q92 38 92 81V600Q92 636 85.0 652.5Q78 669 60 669Q44 669 12 654Q8 652 5.5 657.5Q3 663 7 665L130 725Q131 725 131.0 725.0Q131 725 132 725Q135 725 137.0 723.0Q139 721 139 718V81Q139 38 151.0 25.0Q163 12 205 12Q207 12 207.0 6.0Q207 0 205 0Q187 0 164.5 1.0Q142 2 116 2Q91 2 67.5 1.0Q44 0 27 0ZM296 0Q293 0 293.0 6.0Q293 12 296 12Q337 12 349.0 25.0Q361 38 361 81V244Q361 363 267 363Q228 363 188.5 337.5Q149 312 120 269L116 281Q163 343 206.0 369.5Q249 396 294 396Q348 396 378.0 366.5Q408 337 408 275V81Q408 38 420.0 25.0Q432 12 474 12Q476 12 476.0 6.0Q476 0 474 0Q456 0 433.5 1.0Q411 2 385 2Q360 2 336.5 1.0Q313 0 296 0Z" fill="#c8c2b5" transform="translate(254.96,80.00) scale(0.02100,-0.02100)"/>
<path d="M189 -12Q165 -12 143.5 -4.5Q122 3 109.0 20.5Q96 38 96 68V306Q96 331 93.0 342.5Q90 354 79.0 357.5Q68 361 44 361Q41 361 41.0 367.0Q41 373 44 373Q82 373 105.5 394.0Q129 415 129 447Q129 450 136.5 450.0Q144 450 144 447V102Q144 60 164.5 39.5Q185 19 225 19Q252 19 272.5 27.5Q293 36 306 46Q310 48 313.0 43.5Q316 39 312 36Q275 10 247.0 -1.0Q219 -12 189 -12ZM282 338Q243 348 207.5 350.5Q172 353 132 353V374Q171 374 207.5 377.0Q244 380 285 384Q288 384 290.0 377.5Q292 371 292 361Q292 354 289.0 345.5Q286 337 282 338Z" fill="#c8c2b5" transform="translate(270.29,80.00) scale(0.02100,-0.02100)"/>
<path d="M230 -13Q171 -13 127.5 16.0Q84 45 60.5 93.5Q37 142 37 198Q37 250 56.0 288.0Q75 326 106.5 350.5Q138 375 175.0 387.0Q212 399 248 399Q308 399 351.0 369.0Q394 339 417.0 292.0Q440 245 440 193Q440 129 411.0 83.0Q382 37 334.5 12.0Q287 -13 230 -13ZM258 5Q314 5 348.0 42.5Q382 80 382 167Q382 228 361.0 276.0Q340 324 302.5 352.0Q265 380 215 380Q158 380 126.0 340.5Q94 301 94 227Q94 168 114.5 117.0Q135 66 172.0 35.5Q209 5 258 5Z" fill="#c8c2b5" transform="translate(277.41,80.00) scale(0.02100,-0.02100)"/><path d="M-19 -281Q-35 -281 -45.5 -272.0Q-56 -263 -54 -244Q-48 -222 -19 -222Q2 -222 23.5 -218.5Q45 -215 65.0 -207.0Q85 -199 101 -188Q123 -173 152.0 -136.5Q181 -100 213.0 -52.5Q245 -5 274.0 45.5Q303 96 324.0 141.0Q345 186 352 216Q358 243 357.0 267.5Q356 292 351.0 312.0Q346 332 342.0 346.5Q338 361 338 368Q338 380 346.0 388.0Q354 396 368 396Q388 396 395.0 381.5Q402 367 402 345Q402 308 386.5 257.0Q371 206 343.5 146.5Q316 87 281.0 27.0Q246 -33 206.5 -88.5Q167 -144 126.5 -187.0Q86 -230 48.5 -255.5Q11 -281 -19 -281ZM187 -108Q193 112 161.5 233.0Q130 354 71 354Q58 354 44.0 346.0Q30 338 19 316Q17 312 11.5 313.5Q6 315 7 319Q26 357 46.5 376.0Q67 395 94 395Q130 395 157.5 360.5Q185 326 202.5 266.0Q220 206 227.0 127.5Q234 49 229 -40Z" fill="#8a6b1f" transform="translate(292.34,80.00) scale(0.02100,-0.02100)"/>
<path d="M153 -14Q107 -14 76.5 13.5Q46 41 34.5 88.0Q23 135 34 193Q45 251 75.5 297.5Q106 344 149.5 371.5Q193 399 242 399Q293 399 324.0 370.5Q355 342 365.0 295.0Q375 248 364 193Q352 131 319.0 84.0Q286 37 242.0 11.5Q198 -14 153 -14ZM188 11Q232 11 269.0 47.0Q306 83 318 149Q325 184 322.5 223.0Q320 262 307.5 296.5Q295 331 271.5 353.0Q248 375 213 375Q168 375 130.5 337.0Q93 299 80 236Q72 199 75.0 160.0Q78 121 91.5 87.0Q105 53 129.5 32.0Q154 11 188 11Z" fill="#8a6b1f" transform="translate(301.58,80.00) scale(0.02100,-0.02100)"/>
<path d="M133 -13Q90 -13 75.5 18.0Q61 49 76 119L112 297Q118 328 113.0 343.0Q108 358 95 358Q84 358 66.0 345.0Q48 332 26 309Q22 305 18.0 309.0Q14 313 18 317Q51 355 78.0 375.0Q105 395 130 395Q153 395 159.5 373.5Q166 352 154 297L122 138Q109 78 119.0 49.5Q129 21 161 21Q194 21 230.5 63.0Q267 105 299.5 185.5Q332 266 353 380L364 379Q344 263 308.5 174.5Q273 86 228.0 36.5Q183 -13 133 -13ZM326 -9Q303 -9 297.5 12.5Q292 34 302 89L353 380Q355 394 379 394Q392 394 396.0 392.5Q400 391 400 388Q400 385 395.0 361.5Q390 338 385 312L344 89Q334 28 361 28Q373 28 392.0 40.0Q411 52 433 75Q436 79 440.5 74.5Q445 70 441 67Q407 29 379.5 10.0Q352 -9 326 -9Z" fill="#8a6b1f" transform="translate(309.89,80.00) scale(0.02100,-0.02100)"/>
<path d="M105 6 95 7Q103 50 118.0 102.0Q133 154 153.0 205.5Q173 257 195.5 300.0Q218 343 241.5 369.0Q265 395 287 395Q300 395 312.5 388.0Q325 381 332.5 369.0Q340 357 337 343Q334 330 326.5 324.5Q319 319 308 319Q293 319 286.5 327.5Q280 336 275.5 344.5Q271 353 261 353Q246 353 228.5 329.0Q211 305 192.0 266.0Q173 227 156.0 180.5Q139 134 125.5 88.0Q112 42 105 6ZM80 -8Q67 -8 63.5 -6.5Q60 -5 60 -2Q60 1 65.5 26.5Q71 52 75 74L106 249Q115 295 113.0 318.0Q111 341 103.5 349.5Q96 358 87 358Q72 358 55.5 346.0Q39 334 26 322Q24 320 20.0 323.5Q16 327 18 330Q46 362 71.5 378.5Q97 395 122 395Q139 395 148.5 383.0Q158 371 159.0 339.5Q160 308 149 249L105 6Q103 -8 80 -8Z" fill="#8a6b1f" transform="translate(319.60,80.00) scale(0.02100,-0.02100)"/>
<path d="M106 -281Q52 -281 17.0 -263.5Q-18 -246 -33.0 -218.0Q-48 -190 -41 -159Q-30 -115 15.0 -82.5Q60 -50 117 -18L124 -26Q99 -41 73.5 -56.5Q48 -72 29.5 -91.0Q11 -110 6 -138Q1 -170 17.5 -196.5Q34 -223 69.0 -238.5Q104 -254 153 -254Q209 -254 240.0 -231.5Q271 -209 273 -175Q274 -148 258.5 -128.0Q243 -108 218.0 -92.5Q193 -77 165.5 -63.0Q138 -49 114.0 -34.0Q90 -19 77.0 -1.0Q64 17 68 41Q73 63 89.5 82.0Q106 101 131 123L142 115Q130 108 120.0 94.0Q110 80 108 65Q105 44 119.5 28.0Q134 12 158.5 -1.5Q183 -15 210.5 -29.0Q238 -43 262.5 -59.0Q287 -75 301.5 -96.0Q316 -117 313 -146Q311 -180 282.0 -211.0Q253 -242 207.0 -261.5Q161 -281 106 -281ZM150 98Q112 98 87.5 118.5Q63 139 54.5 172.5Q46 206 55 246Q63 288 87.5 321.0Q112 354 146.5 373.0Q181 392 220 392Q259 392 282.5 372.0Q306 352 314.0 319.0Q322 286 313 246Q304 201 278.5 168.0Q253 135 219.0 116.5Q185 98 150 98ZM175 116Q206 116 232.5 142.0Q259 168 268 214Q274 248 269.0 285.0Q264 322 246.0 348.5Q228 375 195 375Q163 375 136.0 347.0Q109 319 101 276Q94 241 100.0 203.5Q106 166 125.0 141.0Q144 116 175 116ZM257 346 256 353Q286 371 320.0 382.0Q354 393 382 393Q387 393 387.5 385.5Q388 378 385.5 369.0Q383 360 380.0 353.5Q377 347 374 349Q351 360 318.5 358.0Q286 356 257 346Z" fill="#8a6b1f" transform="translate(331.57,80.00) scale(0.02100,-0.02100)"/>
<path d="M153 -14Q107 -14 76.5 13.5Q46 41 34.5 88.0Q23 135 34 193Q45 251 75.5 297.5Q106 344 149.5 371.5Q193 399 242 399Q293 399 324.0 370.5Q355 342 365.0 295.0Q375 248 364 193Q352 131 319.0 84.0Q286 37 242.0 11.5Q198 -14 153 -14ZM188 11Q232 11 269.0 47.0Q306 83 318 149Q325 184 322.5 223.0Q320 262 307.5 296.5Q295 331 271.5 353.0Q248 375 213 375Q168 375 130.5 337.0Q93 299 80 236Q72 199 75.0 160.0Q78 121 91.5 87.0Q105 53 129.5 32.0Q154 11 188 11Z" fill="#8a6b1f" transform="translate(339.48,80.00) scale(0.02100,-0.02100)"/>
<path d="M80 -13Q48 -13 31.5 11.0Q15 35 22 91Q30 146 56.5 200.5Q83 255 120.5 300.0Q158 345 200.5 372.0Q243 399 282 399Q300 399 317.0 392.5Q334 386 346.0 371.0Q358 356 360 332L322 357Q333 359 349.0 373.5Q365 388 368 407Q370 410 375.5 409.0Q381 408 380 406L322 89Q312 28 338 28Q350 28 368.0 41.5Q386 55 408 77Q411 80 415.0 76.0Q419 72 416 69Q383 32 356.5 11.5Q330 -9 304 -9Q281 -9 275.5 12.5Q270 34 280 89L304 229L320 246Q289 172 248.5 113.0Q208 54 164.5 20.5Q121 -13 80 -13ZM109 30Q138 30 169.5 52.5Q201 75 230.5 112.0Q260 149 282.0 194.0Q304 239 313 283Q321 318 305.5 343.0Q290 368 251 367Q215 366 176.5 334.0Q138 302 108.5 248.5Q79 195 69 127Q62 80 71.0 55.0Q80 30 109 30Z" fill="#8a6b1f" transform="translate(347.80,80.00) scale(0.02100,-0.02100)"/>
<path d="M90 -9Q66 -9 60.0 12.5Q54 34 64 89L165 627Q171 659 157.0 668.0Q143 677 96 654Q92 652 89.5 658.0Q87 664 91 665L214 725Q218 727 222.0 723.0Q226 719 225 717L108 89Q101 58 106.5 43.0Q112 28 125 28Q136 28 154.0 41.5Q172 55 194 77Q198 81 202.0 77.0Q206 73 202 69Q169 32 142.5 11.5Q116 -9 90 -9Z" fill="#8a6b1f" transform="translate(356.87,80.00) scale(0.02100,-0.02100)"/>
<path d="M99 -11Q63 -11 35.5 6.5Q8 24 12 49Q14 61 22.0 67.0Q30 73 39 73Q50 73 55.5 63.0Q61 53 67.5 40.5Q74 28 87.0 18.0Q100 8 125 8Q154 8 172.5 24.5Q191 41 195 74Q200 105 187.0 127.5Q174 150 152.0 168.0Q130 186 109.0 204.5Q88 223 75.5 245.5Q63 268 69 299Q75 332 95.5 353.5Q116 375 143.5 385.5Q171 396 198 396Q231 396 254.0 382.0Q277 368 274 349Q272 336 263.5 330.5Q255 325 247 325Q235 325 227.5 332.5Q220 340 212.5 350.0Q205 360 194.0 367.5Q183 375 163 375Q144 375 127.5 365.5Q111 356 108 333Q103 303 116.0 281.0Q129 259 150.5 240.0Q172 221 193.5 201.5Q215 182 227.5 158.0Q240 134 235 102Q230 72 210.5 46.0Q191 20 162.0 4.5Q133 -11 99 -11Z" fill="#8a6b1f" transform="translate(361.81,80.00) scale(0.02100,-0.02100)"/><path d="M98 -11Q80 -11 69.0 -0.5Q58 10 58 28Q58 45 69.0 55.0Q80 65 98 65Q117 65 127.0 55.0Q137 45 137 28Q137 10 127.0 -0.5Q117 -11 98 -11Z" fill="#c8c2b5" transform="translate(368.06,80.00) scale(0.02100,-0.02100)"/><rect x="292.34" y="83.50" width="75.73" height="1.0" fill="#8a6b1f"/></svg>